# xmcd CD database file
#
# Track frame offsets:
#	150
#	20719
#	42614
#	63753
#	83092
#	99701
#	123167
#	157745
#
# Disc length: 2411 seconds
#
# Revision: 0
# Processed by: cddbd v1.4PL0 Copyright (c) Steve Scherf et al.
# Submitted via: CDex 1.51
#
DISCID=5c096908
DTITLE=Bryan James Gatten - A Package From Home
DYEAR=2001
DGENRE=Blues
TTITLE0=Ripped-off Funk
TTITLE1=Band Meets Van
TTITLE2='Cause We've Ended As Lovers
TTITLE3=Just Swinging Around
TTITLE4=Joe's Groove (Radio Mix)
TTITLE5=Brush With The Blues (Live)
TTITLE6=I See The Lord
TTITLE7=Joe's Groove (Extended Mix)
EXTD=YEAR: 2001
EXTT0=
EXTT1=
EXTT2=
EXTT3=
EXTT4=
EXTT5=
EXTT6=
EXTT7=
PLAYORDER=
